<svg width="48" height="49" viewBox="0 0 48 49" fill="none" xmlns="http://www.w3.org/2000/svg">
<path d="M24.9957 7.75291V5.10994C25.5443 4.91599 26.0067 4.53432 26.3012 4.0324C26.5956 3.53048 26.7032 2.94063 26.6048 2.36709C26.5064 1.79355 26.2084 1.27326 25.7635 0.898183C25.3186 0.523103 24.7554 0.317383 24.1735 0.317383C23.5916 0.317383 23.0284 0.523103 22.5835 0.898183C22.1386 1.27326 21.8406 1.79355 21.7422 2.36709C21.6438 2.94063 21.7513 3.53048 22.0458 4.0324C22.3402 4.53432 22.8027 4.91599 23.3513 5.10994V7.75242C23.8989 7.71955 24.448 7.71955 24.9957 7.75242V7.75291ZM13.1382 11.9794L11.281 10.1128C11.4384 9.78623 11.521 9.42846 11.5225 9.06574C11.5225 8.57785 11.3778 8.10092 11.1068 7.69525C10.8357 7.28959 10.4505 6.97341 9.99972 6.78671C9.54897 6.6 9.05298 6.55115 8.57447 6.64633C8.09595 6.74151 7.65641 6.97645 7.31142 7.32144C6.96643 7.66643 6.73149 8.10597 6.63631 8.58449C6.54113 9.063 6.58998 9.55899 6.77669 10.0097C6.96339 10.4605 7.27957 10.8458 7.68523 11.1168C8.0909 11.3879 8.56783 11.5325 9.05572 11.5325C9.42397 11.5321 9.7873 11.4478 10.1181 11.2861L11.9788 13.1388C12.3446 12.732 12.7318 12.345 13.1387 11.9794H13.1382ZM7.75279 23.3514H5.10982C4.91587 22.8028 4.5342 22.3404 4.03228 22.0459C3.53036 21.7515 2.9405 21.6439 2.36697 21.7423C1.79343 21.8407 1.27314 22.1387 0.898061 22.5836C0.522981 23.0285 0.317261 23.5917 0.317261 24.1736C0.317261 24.7555 0.522981 25.3187 0.898061 25.7636C1.27314 26.2085 1.79343 26.5065 2.36697 26.6049C2.9405 26.7033 3.53036 26.5958 4.03228 26.3013C4.5342 26.0069 4.91587 25.5444 5.10982 24.9958H7.75229C7.71943 24.4482 7.71943 23.8991 7.75229 23.3514H7.75279ZM11.9793 35.2084L10.1038 37.0775C9.57214 36.8231 8.96762 36.7652 8.39733 36.9139C7.82704 37.0626 7.32778 37.4083 6.98797 37.8898C6.64817 38.3714 6.48976 38.9576 6.54081 39.5448C6.59185 40.1319 6.84905 40.6821 7.26685 41.0977C7.68464 41.5134 8.23608 41.7678 8.82347 41.8158C9.41087 41.8639 9.99632 41.7025 10.4761 41.3603C10.9559 41.018 11.2991 40.517 11.4449 39.9459C11.5907 39.3749 11.5296 38.7707 11.2726 38.2403L13.1382 36.3678C12.7316 36.0022 12.3447 35.6152 11.9793 35.2084V35.2084ZM23.3513 40.5943V43.2368C22.8027 43.4307 22.3402 43.8124 22.0458 44.3143C21.7513 44.8163 21.6438 45.4061 21.7422 45.9796C21.8406 46.5532 22.1386 47.0735 22.5835 47.4485C23.0284 47.8236 23.5916 48.0293 24.1735 48.0293C24.7554 48.0293 25.3186 47.8236 25.7635 47.4485C26.2084 47.0735 26.5064 46.5532 26.6048 45.9796C26.7032 45.4061 26.5956 44.8163 26.3012 44.3143C26.0067 43.8124 25.5443 43.4307 24.9957 43.2368V40.5943C24.448 40.6272 23.8989 40.6272 23.3513 40.5943V40.5943ZM35.2083 36.3678L37.0739 38.2403C36.9127 38.5714 36.8284 38.9346 36.8274 39.3028C36.8225 39.8434 36.9937 40.371 37.3151 40.8058C37.6365 41.2406 38.0907 41.5589 38.6091 41.7127C39.1274 41.8665 39.6818 41.8474 40.1883 41.6583C40.6949 41.4692 41.1261 41.1204 41.4168 40.6645C41.7076 40.2086 41.842 39.6705 41.7999 39.1314C41.7577 38.5924 41.5413 38.0817 41.1832 37.6766C40.8251 37.2714 40.3449 36.9938 39.8151 36.8857C39.2854 36.7777 38.7348 36.8449 38.2466 37.0775L36.3677 35.2084C36.0021 35.6152 35.6151 36.0022 35.2083 36.3678V36.3678ZM45.5525 21.7066C45.0441 21.7086 44.5486 21.8678 44.1341 22.1622C43.7195 22.4566 43.4061 22.872 43.2367 23.3514H40.5942C40.6271 23.8991 40.6271 24.4482 40.5942 24.9958H43.2367C43.3881 25.4211 43.6536 25.7965 44.004 26.0812C44.3545 26.3658 44.7764 26.5486 45.2237 26.6096C45.671 26.6707 46.1265 26.6076 46.5404 26.4273C46.9542 26.247 47.3106 25.9564 47.5705 25.5873C47.8304 25.2181 47.9838 24.7847 48.014 24.3342C48.0443 23.8838 47.9501 23.4337 47.7418 23.0332C47.5335 22.6326 47.2192 22.297 46.8331 22.0631C46.447 21.8291 46.004 21.7058 45.5525 21.7066V21.7066ZM36.3677 13.1383L38.2283 11.2846C38.5592 11.4463 38.9225 11.5306 39.2908 11.5311C39.7787 11.5311 40.2556 11.3864 40.6613 11.1153C41.0669 10.8443 41.3831 10.459 41.5698 10.0083C41.7565 9.55751 41.8054 9.06151 41.7102 8.583C41.615 8.10449 41.3801 7.66495 41.0351 7.31996C40.6901 6.97497 40.2505 6.74003 39.772 6.64485C39.2935 6.54966 38.7975 6.59851 38.3468 6.78522C37.896 6.97193 37.5108 7.2881 37.2397 7.69377C36.9686 8.09943 36.824 8.57636 36.824 9.06425C36.8259 9.42697 36.9081 9.78475 37.0659 10.1108L35.2083 11.9794C35.6151 12.345 36.0021 12.732 36.3677 13.1388V13.1383Z" fill="black"/>
<path d="M37.3297 23.3514H40.5942C40.4113 19.5604 38.9176 15.9506 36.3682 13.1388L34.0573 15.4493L32.8979 14.2898L35.2088 11.9789C32.3969 9.42946 28.7869 7.9357 24.9957 7.75293V11.0174H23.3518V7.75293C19.5608 7.93581 15.951 9.42956 13.1392 11.9789L15.4496 14.2898L14.2902 15.4493L11.9793 13.1383C9.42982 15.9502 7.93607 19.5603 7.7533 23.3514H11.0178V24.9958H7.7533C7.93618 28.7868 9.42993 32.3967 11.9793 35.2084L14.2902 32.8975L15.4496 34.0574L13.1387 36.3684C15.9506 38.9178 19.5606 40.4116 23.3518 40.5943V37.3298H24.9962V40.5943C28.7872 40.4114 32.397 38.9177 35.2088 36.3684L32.8979 34.0574L34.0578 32.898L36.3687 35.2089C38.9182 32.397 40.4119 28.787 40.5947 24.9958H37.3302V23.3519L37.3297 23.3514ZM30.4726 18.638C30.6597 18.5301 30.8661 18.46 31.0802 18.4318C31.2943 18.4036 31.5119 18.4179 31.7205 18.4738C31.9291 18.5297 32.1246 18.6261 32.2959 18.7576C32.4673 18.8891 32.611 19.053 32.719 19.24C32.827 19.427 32.897 19.6335 32.9252 19.8476C32.9534 20.0617 32.9391 20.2793 32.8832 20.4879C32.8273 20.6965 32.7309 20.892 32.5994 21.0633C32.468 21.2347 32.304 21.3784 32.117 21.4864C31.93 21.5943 31.7235 21.6644 31.5094 21.6926C31.2953 21.7208 31.0778 21.7065 30.8692 21.6506C30.6606 21.5947 30.465 21.4983 30.2937 21.3668C30.1224 21.2353 29.9786 21.0714 29.8707 20.8844C29.6526 20.5067 29.5935 20.0578 29.7064 19.6365C29.8193 19.2153 30.0949 18.8561 30.4726 18.638V18.638ZM26.8613 16.2306C26.9692 16.0436 27.113 15.8797 27.2843 15.7482C27.4556 15.6167 27.6512 15.5203 27.8598 15.4644C28.0683 15.4085 28.2859 15.3942 28.5 15.4224C28.7141 15.4506 28.9206 15.5207 29.1076 15.6286C29.2946 15.7366 29.4586 15.8804 29.59 16.0517C29.7215 16.223 29.8179 16.4185 29.8738 16.6271C29.9297 16.8357 29.944 17.0533 29.9158 17.2674C29.8876 17.4815 29.8176 17.688 29.7096 17.875C29.4915 18.2527 29.1324 18.5283 28.7111 18.6412C28.2898 18.7541 27.8409 18.695 27.4632 18.477C27.0855 18.2589 26.8099 17.8997 26.697 17.4785C26.5841 17.0572 26.6432 16.6083 26.8613 16.2306ZM15.6283 19.2398C15.7363 19.0527 15.8801 18.8888 16.0514 18.7573C16.2228 18.6258 16.4184 18.5293 16.627 18.4734C16.8357 18.4176 17.0533 18.4033 17.2674 18.4315C17.4816 18.4597 17.6881 18.5298 17.8751 18.6378C18.0622 18.7458 18.2261 18.8896 18.3576 19.061C18.4891 19.2323 18.5855 19.4279 18.6414 19.6365C18.6973 19.8452 18.7116 20.0628 18.6834 20.2769C18.6552 20.4911 18.5851 20.6976 18.4771 20.8846C18.259 21.2624 17.8997 21.5381 17.4783 21.651C17.057 21.7639 16.608 21.7047 16.2302 21.4866C15.8525 21.2685 15.5768 20.9092 15.4639 20.4879C15.351 20.0665 15.4101 19.6176 15.6283 19.2398V19.2398ZM14.306 24.1734C14.306 23.7372 14.4793 23.3189 14.7877 23.0105C15.0962 22.702 15.5145 22.5288 15.9507 22.5288C16.3868 22.5288 16.8052 22.702 17.1136 23.0105C17.422 23.3189 17.5953 23.7372 17.5953 24.1734C17.5953 24.6096 17.422 25.0279 17.1136 25.3363C16.8052 25.6447 16.3868 25.818 15.9507 25.818C15.5145 25.818 15.0962 25.6447 14.7877 25.3363C14.4793 25.0279 14.306 24.6096 14.306 24.1734V24.1734ZM17.8749 29.7092C17.6878 29.8172 17.4814 29.8873 17.2673 29.9155C17.0531 29.9438 16.8356 29.9295 16.6269 29.8736C16.4183 29.8178 16.2228 29.7213 16.0514 29.5899C15.8801 29.4584 15.7363 29.2945 15.6283 29.1075C15.5203 28.9205 15.4502 28.714 15.4219 28.4999C15.3937 28.2858 15.408 28.0682 15.4638 27.8596C15.5197 27.6509 15.6161 27.4554 15.7476 27.284C15.8791 27.1127 16.043 26.9689 16.23 26.8609C16.6077 26.6428 17.0566 26.5836 17.4779 26.6965C17.8992 26.8093 18.2585 27.0849 18.4766 27.4626C18.6947 27.8403 18.7539 28.2892 18.641 28.7105C18.5282 29.1319 18.2526 29.4911 17.8749 29.7092V29.7092ZM21.4862 32.1166C21.2682 32.4944 20.909 32.77 20.4877 32.8829C20.0665 32.9958 19.6176 32.9367 19.2399 32.7186C18.8622 32.5006 18.5866 32.1414 18.4737 31.7201C18.3608 31.2988 18.4199 30.85 18.6379 30.4723C18.7459 30.2852 18.8896 30.1213 19.061 29.9899C19.2323 29.8584 19.4278 29.7619 19.6364 29.706C19.845 29.6501 20.0626 29.6359 20.2767 29.6641C20.4908 29.6922 20.6972 29.7623 20.8843 29.8703C21.0713 29.9783 21.2352 30.122 21.3667 30.2933C21.4982 30.4647 21.5946 30.6602 21.6505 30.8688C21.7064 31.0774 21.7207 31.2949 21.6925 31.5091C21.6643 31.7232 21.5942 31.9296 21.4862 32.1166V32.1166ZM20.8845 18.4767C20.6975 18.5847 20.491 18.6548 20.2769 18.683C20.0628 18.7113 19.8452 18.697 19.6366 18.6411C19.428 18.5853 19.2324 18.4888 19.0611 18.3574C18.8897 18.2259 18.7459 18.062 18.6379 17.875C18.5299 17.688 18.4598 17.4815 18.4316 17.2674C18.4034 17.0533 18.4176 16.8357 18.4735 16.6271C18.5294 16.4185 18.6258 16.2229 18.7572 16.0515C18.8887 15.8802 19.0526 15.7364 19.2396 15.6284C19.6174 15.4103 20.0662 15.3511 20.4876 15.464C20.9089 15.5768 21.2681 15.8524 21.4862 16.2301C21.7044 16.6078 21.7635 17.0567 21.6507 17.478C21.5378 17.8994 21.2622 18.2586 20.8845 18.4767V18.4767ZM24.1733 34.0411C23.7371 34.0411 23.3188 33.8678 23.0103 33.5594C22.7019 33.251 22.5286 32.8327 22.5286 32.3965C22.5286 31.9603 22.7019 31.542 23.0103 31.2336C23.3188 30.9251 23.7371 30.7519 24.1733 30.7519C24.6094 30.7519 25.0278 30.9251 25.3362 31.2336C25.6446 31.542 25.8179 31.9603 25.8179 32.3965C25.8179 32.8327 25.6446 33.251 25.3362 33.5594C25.0278 33.8678 24.6094 34.0411 24.1733 34.0411ZM24.1733 17.5954C23.7371 17.5954 23.3188 17.4221 23.0103 17.1137C22.7019 16.8053 22.5286 16.387 22.5286 15.9508C22.5286 15.5146 22.7019 15.0963 23.0103 14.7879C23.3188 14.4794 23.7371 14.3062 24.1733 14.3062C24.6094 14.3062 25.0278 14.4794 25.3362 14.7879C25.6446 15.0963 25.8179 15.5146 25.8179 15.9508C25.8179 16.387 25.6446 16.8053 25.3362 17.1137C25.0278 17.4221 24.6094 17.5954 24.1733 17.5954ZM29.1069 32.7189C28.9198 32.8268 28.7134 32.8969 28.4993 32.9251C28.2852 32.9533 28.0676 32.939 27.859 32.8831C27.6504 32.8272 27.4549 32.7308 27.2836 32.5993C27.1122 32.4678 26.9685 32.3039 26.8605 32.1169C26.7525 31.9299 26.6825 31.7234 26.6543 31.5093C26.6261 31.2952 26.6404 31.0776 26.6963 30.869C26.7522 30.6604 26.8486 30.4649 26.9801 30.2936C27.1115 30.1223 27.2755 29.9785 27.4625 29.8705C27.8402 29.6524 28.2891 29.5933 28.7104 29.7061C29.1317 29.819 29.491 30.0946 29.7091 30.4723C29.9272 30.85 29.9864 31.2989 29.8735 31.7202C29.7607 32.1415 29.4851 32.5007 29.1074 32.7189H29.1069ZM32.7187 29.1075C32.6107 29.2945 32.4669 29.4585 32.2956 29.59C32.1242 29.7215 31.9286 29.8179 31.72 29.8738C31.5114 29.9297 31.2937 29.944 31.0796 29.9158C30.8654 29.8876 30.659 29.8175 30.4719 29.7095C30.2848 29.6015 30.1209 29.4577 29.9894 29.2863C29.8579 29.1149 29.7615 28.9194 29.7056 28.7107C29.6497 28.5021 29.6354 28.2845 29.6636 28.0703C29.6918 27.8562 29.7619 27.6497 29.8699 27.4626C30.088 27.0848 30.4473 26.8092 30.8687 26.6963C31.29 26.5834 31.739 26.6425 32.1168 26.8606C32.4945 27.0788 32.7702 27.438 32.8831 27.8594C32.996 28.2808 32.9369 28.7297 32.7187 29.1075V29.1075ZM32.3961 25.8182C31.9599 25.8182 31.5416 25.645 31.2332 25.3366C30.9248 25.0281 30.7515 24.6098 30.7515 24.1736C30.7515 23.7374 30.9248 23.3191 31.2332 23.0107C31.5416 22.7023 31.9599 22.529 32.3961 22.529C32.8323 22.529 33.2506 22.7023 33.559 23.0107C33.8674 23.3191 34.0407 23.7374 34.0407 24.1736C34.0407 24.6098 33.8674 25.0281 33.559 25.3366C33.2506 25.645 32.8323 25.8182 32.3961 25.8182V25.8182Z" fill="black"/>
<path d="M19.9176 8.28775C20.3389 8.17475 20.698 7.89902 20.916 7.52123C21.134 7.14343 21.193 6.69452 21.08 6.27323C20.967 5.85195 20.6913 5.49281 20.3135 5.27482C19.9357 5.05682 19.4867 4.99784 19.0655 5.11084C18.8569 5.16679 18.6613 5.26328 18.49 5.3948C18.3187 5.52632 18.175 5.69029 18.067 5.87736C17.8491 6.25515 17.7901 6.70407 17.9031 7.12536C18.0161 7.54664 18.2918 7.90578 18.6696 8.12377C19.0474 8.34176 19.4963 8.40075 19.9176 8.28775V8.28775ZM15.9509 9.93162C16.3287 9.71363 16.6044 9.3545 16.7174 8.93322C16.8304 8.51195 16.7714 8.06305 16.5534 7.68527C16.3354 7.3075 15.9763 7.03179 15.555 6.9188C15.1337 6.80582 14.6848 6.86481 14.307 7.0828C13.9293 7.30079 13.6535 7.65992 13.5406 8.0812C13.4276 8.50247 13.4866 8.95137 13.7046 9.32915C13.9225 9.70693 14.2817 9.98263 14.703 10.0956C15.1242 10.2086 15.5731 10.1496 15.9509 9.93162V9.93162ZM7.68452 16.5527C7.87154 16.6606 8.078 16.7307 8.29211 16.7589C8.50621 16.7871 8.72377 16.7728 8.93237 16.7169C9.14096 16.661 9.3365 16.5646 9.50782 16.4331C9.67915 16.3016 9.8229 16.1377 9.93087 15.9507C10.0388 15.7637 10.1089 15.5572 10.1371 15.3431C10.1653 15.129 10.151 14.9114 10.0951 14.7028C10.0392 14.4942 9.94278 14.2987 9.81131 14.1274C9.67984 13.956 9.51591 13.8123 9.32889 13.7043C8.95118 13.4863 8.50231 13.4272 8.08104 13.5401C7.65977 13.653 7.3006 13.9286 7.08254 14.3063C6.86448 14.684 6.8054 15.1329 6.91829 15.5542C7.03119 15.9754 7.30681 16.3346 7.68452 16.5527V16.5527ZM6.27421 21.0805C6.48284 21.1364 6.70044 21.1506 6.91457 21.1224C7.12871 21.0942 7.33519 21.0241 7.52224 20.9161C7.70928 20.8081 7.87321 20.6643 8.00469 20.4929C8.13616 20.3216 8.23259 20.126 8.28848 19.9174C8.34436 19.7087 8.35861 19.4911 8.3304 19.277C8.30219 19.0629 8.23208 18.8564 8.12408 18.6693C8.01607 18.4823 7.87228 18.3183 7.70092 18.1869C7.52955 18.0554 7.33397 17.959 7.12534 17.9031C6.70406 17.7902 6.25519 17.8493 5.87749 18.0674C5.49979 18.2855 5.22419 18.6447 5.11132 19.066C4.99845 19.4873 5.05756 19.9361 5.27565 20.3138C5.49373 20.6915 5.85292 20.9671 6.27421 21.08V21.0805ZM7.12534 30.444C7.33394 30.3881 7.52949 30.2916 7.70082 30.1602C7.87216 30.0287 8.01592 29.8648 8.1239 29.6778C8.23189 29.4908 8.30198 29.2843 8.33017 29.0702C8.35837 28.8561 8.34412 28.6385 8.28823 28.4299C8.23234 28.2213 8.13592 28.0258 8.00446 27.8545C7.873 27.6831 7.70908 27.5394 7.52206 27.4314C7.33504 27.3234 7.12858 27.2533 6.91448 27.2251C6.70037 27.1969 6.48281 27.2112 6.27421 27.267C5.85292 27.3799 5.49373 27.6555 5.27565 28.0332C5.05756 28.4109 4.99845 28.8598 5.11132 29.2811C5.22419 29.7024 5.49979 30.0615 5.87749 30.2796C6.25519 30.4977 6.70406 30.5568 7.12534 30.444V30.444ZM7.08229 34.0405C7.19026 34.2275 7.33402 34.3915 7.50535 34.523C7.67669 34.6545 7.87225 34.751 8.08086 34.8069C8.28948 34.8628 8.50707 34.8771 8.7212 34.8489C8.93534 34.8208 9.14183 34.7507 9.32889 34.6427C9.51594 34.5347 9.6799 34.391 9.8114 34.2197C9.9429 34.0483 10.0394 33.8528 10.0953 33.6441C10.1512 33.4355 10.1655 33.2179 10.1373 33.0038C10.1092 32.7897 10.0391 32.5832 9.93112 32.3961C9.71299 32.0183 9.35373 31.7427 8.93237 31.6298C8.511 31.5169 8.06205 31.576 7.68427 31.7941C7.30649 32.0123 7.03084 32.3715 6.91794 32.7929C6.80505 33.2143 6.86417 33.6632 7.08229 34.041V34.0405ZM15.9509 38.4149C15.5731 38.1969 15.1241 38.138 14.7028 38.251C14.2815 38.364 13.9223 38.6398 13.7043 39.0176C13.4863 39.3955 13.4274 39.8445 13.5404 40.2658C13.6534 40.6871 13.9292 41.0463 14.307 41.2642C14.4941 41.3722 14.7006 41.4422 14.9147 41.4704C15.1288 41.4985 15.3464 41.4842 15.555 41.4282C15.7636 41.3723 15.9591 41.2758 16.1304 41.1443C16.3017 41.0128 16.4454 40.8488 16.5534 40.6618C16.6613 40.4747 16.7314 40.2682 16.7595 40.0541C16.7876 39.84 16.7733 39.6224 16.7174 39.4138C16.6614 39.2052 16.565 39.0097 16.4334 38.8384C16.3019 38.6671 16.138 38.5234 15.9509 38.4154V38.4149ZM19.9176 40.0578C19.709 40.0019 19.4914 39.9876 19.2772 40.0158C19.0631 40.044 18.8566 40.1141 18.6695 40.222C18.4824 40.33 18.3185 40.4738 18.187 40.6451C18.0555 40.8165 17.959 41.0121 17.9031 41.2207C17.8472 41.4293 17.8329 41.6469 17.8611 41.8611C17.8892 42.0752 17.9593 42.2817 18.0673 42.4688C18.1753 42.6559 18.3191 42.8198 18.4904 42.9513C18.6618 43.0828 18.8573 43.1793 19.066 43.2352C19.4872 43.3481 19.9361 43.289 20.3138 43.0709C20.6915 42.8528 20.9671 42.4936 21.08 42.0723C21.1928 41.651 21.1337 41.2022 20.9157 40.8245C20.6976 40.4468 20.3384 40.1712 19.9171 40.0583L19.9176 40.0578ZM28.4294 40.0578C28.0081 40.1708 27.649 40.4465 27.431 40.8243C27.213 41.2021 27.154 41.651 27.267 42.0723C27.38 42.4936 27.6558 42.8528 28.0336 43.0707C28.4113 43.2887 28.8603 43.3477 29.2815 43.2347C29.4901 43.1788 29.6857 43.0823 29.857 42.9508C30.0283 42.8192 30.172 42.6553 30.28 42.4682C30.3879 42.2811 30.4579 42.0746 30.4861 41.8605C30.5142 41.6464 30.4999 41.4288 30.4439 41.2202C30.388 41.0116 30.2915 40.8161 30.16 40.6448C30.0285 40.4735 29.8645 40.3297 29.6774 40.2218C29.4904 40.1139 29.2839 40.0438 29.0697 40.0157C28.8556 39.9875 28.638 40.0019 28.4294 40.0578V40.0578ZM32.3961 38.4149C32.209 38.5229 32.045 38.6666 31.9135 38.8379C31.7819 39.0092 31.6854 39.2048 31.6295 39.4134C31.5735 39.622 31.5592 39.8396 31.5873 40.0538C31.6154 40.2679 31.6854 40.4744 31.7934 40.6615C31.9013 40.8486 32.0451 41.0126 32.2164 41.1442C32.3877 41.2757 32.5832 41.3722 32.7919 41.4282C33.0005 41.4841 33.2181 41.4985 33.4322 41.4703C33.6464 41.4422 33.8529 41.3722 34.04 41.2642C34.227 41.1563 34.391 41.0126 34.5225 40.8413C34.654 40.67 34.7505 40.4744 34.8065 40.2658C34.8624 40.0573 34.8767 39.8397 34.8486 39.6256C34.8204 39.4114 34.7504 39.205 34.6425 39.0179C34.5345 38.8308 34.3908 38.6669 34.2195 38.5354C34.0482 38.4039 33.8526 38.3074 33.6441 38.2514C33.2228 38.1384 32.7739 38.1974 32.3961 38.4154V38.4149ZM40.6625 31.7939C40.4754 31.6859 40.2689 31.6159 40.0548 31.5877C39.8407 31.5595 39.6231 31.5738 39.4145 31.6297C39.2059 31.6856 39.0103 31.7821 38.839 31.9136C38.6676 32.0451 38.5239 32.2091 38.4159 32.3961C38.3079 32.5832 38.2379 32.7897 38.2097 33.0038C38.1815 33.2179 38.1958 33.4355 38.2517 33.6441C38.3076 33.8528 38.4041 34.0483 38.5356 34.2197C38.6671 34.391 38.8311 34.5347 39.0181 34.6427C39.2052 34.7507 39.4116 34.8208 39.6257 34.8489C39.8398 34.8771 40.0574 34.8629 40.266 34.807C40.4746 34.7511 40.6701 34.6546 40.8414 34.5232C41.0128 34.3917 41.1565 34.2278 41.2645 34.0407C41.3724 33.8537 41.4425 33.6473 41.4707 33.4331C41.4989 33.219 41.4846 33.0015 41.4287 32.7929C41.3728 32.5843 41.2764 32.3888 41.1449 32.2174C41.0134 32.0461 40.8495 31.9024 40.6625 31.7944V31.7939ZM42.0728 27.267C41.6515 27.1542 41.2027 27.2133 40.825 27.4314C40.4473 27.6495 40.1717 28.0087 40.0588 28.4299C39.9459 28.8512 40.005 29.3001 40.2231 29.6778C40.4412 30.0555 40.8004 30.3311 41.2217 30.444C41.4303 30.4998 41.6478 30.5141 41.8619 30.4859C42.0761 30.4577 42.2825 30.3876 42.4695 30.2796C42.6565 30.1716 42.8205 30.0279 42.9519 29.8565C43.0834 29.6852 43.1798 29.4897 43.2357 29.2811C43.2916 29.0725 43.3058 28.8549 43.2776 28.6408C43.2494 28.4267 43.1794 28.2202 43.0714 28.0332C42.9634 27.8462 42.8196 27.6823 42.6483 27.5508C42.477 27.4194 42.2814 27.3229 42.0728 27.267V27.267ZM41.2217 17.9026C41.013 17.9585 40.8175 18.0549 40.6461 18.1864C40.4747 18.3179 40.3309 18.4818 40.2229 18.6688C40.1149 18.8559 40.0448 19.0624 40.0166 19.2765C39.9884 19.4906 40.0027 19.7082 40.0585 19.9169C40.1144 20.1255 40.2109 20.3211 40.3423 20.4924C40.4738 20.6638 40.6377 20.8076 40.8248 20.9156C41.0118 21.0236 41.2183 21.0937 41.4324 21.1219C41.6466 21.1501 41.8642 21.1359 42.0728 21.08C42.2814 21.0241 42.477 20.9277 42.6483 20.7962C42.8196 20.6648 42.9634 20.5008 43.0714 20.3138C43.1794 20.1268 43.2494 19.9204 43.2776 19.7062C43.3058 19.4921 43.2916 19.2746 43.2357 19.066C43.1798 18.8574 43.0834 18.6618 42.9519 18.4905C42.8205 18.3192 42.6565 18.1754 42.4695 18.0674C42.2825 17.9594 42.0761 17.8893 41.8619 17.8611C41.6478 17.8329 41.4303 17.8472 41.2217 17.9031V17.9026ZM41.2647 14.3061C41.1567 14.119 41.0129 13.955 40.8416 13.8236C40.6702 13.6921 40.4746 13.5956 40.266 13.5397C40.0573 13.4838 39.8397 13.4696 39.6256 13.4978C39.4114 13.526 39.2049 13.5961 39.0179 13.7041C38.8308 13.8121 38.6669 13.9559 38.5354 14.1272C38.4039 14.2986 38.3075 14.4942 38.2516 14.7028C38.1957 14.9115 38.1814 15.1291 38.2096 15.3432C38.2378 15.5574 38.3079 15.7639 38.4159 15.9509C38.634 16.3287 38.9933 16.6044 39.4147 16.7173C39.836 16.8301 40.285 16.771 40.6627 16.5529C41.0405 16.3348 41.3162 15.9755 41.4291 15.5542C41.542 15.1328 41.4828 14.6838 41.2647 14.3061V14.3061ZM32.3961 9.93162C32.5832 10.0396 32.7896 10.1096 33.0038 10.1377C33.2179 10.1659 33.4355 10.1516 33.6441 10.0956C33.8526 10.0397 34.0482 9.94319 34.2195 9.81168C34.3908 9.68017 34.5345 9.51621 34.6425 9.32915C34.7504 9.14209 34.8204 8.93561 34.8486 8.72148C34.8767 8.50736 34.8624 8.28979 34.8065 8.0812C34.7505 7.8726 34.654 7.67707 34.5225 7.50577C34.391 7.33446 34.227 7.19074 34.04 7.0828C33.6622 6.86481 33.2133 6.80582 32.792 6.9188C32.3708 7.03179 32.0116 7.3075 31.7936 7.68527C31.5756 8.06305 31.5166 8.51195 31.6296 8.93322C31.7426 9.3545 32.0183 9.71363 32.3961 9.93162V9.93162ZM28.4294 8.28775C28.8507 8.40075 29.2996 8.34176 29.6774 8.12377C30.0552 7.90578 30.3309 7.54664 30.4439 7.12536C30.5569 6.70407 30.498 6.25515 30.28 5.87736C30.062 5.49956 29.7028 5.22384 29.2815 5.11084C29.0729 5.05489 28.8554 5.04057 28.6412 5.06871C28.4271 5.09684 28.2206 5.16688 28.0336 5.27482C27.8465 5.38275 27.6825 5.52648 27.551 5.69779C27.4195 5.8691 27.323 6.06463 27.267 6.27323C27.2111 6.48183 27.1968 6.69941 27.2249 6.91354C27.253 7.12767 27.3231 7.33416 27.431 7.52123C27.5389 7.70829 27.6827 7.87227 27.854 8.00379C28.0253 8.13531 28.2208 8.2318 28.4294 8.28775Z" fill="black"/>
</svg>
